<?xml version="1.0" encoding="UTF-8"?><svg id="a" xmlns="http://www.w3.org/2000/svg" viewBox="0 0 433.6 436"><line x1="245.17" y1="120.49" x2="190" y2="40" style="fill:none; stroke:#c2df23; stroke-width:6px;"/><line x1="204.37" y1="167.45" x2="48" y2="94" style="fill:none; stroke:#c2df23; stroke-width:6px;"/><line x1="194.09" y1="249.78" x2="94" y2="268" style="fill:none; stroke:#c2df23; stroke-width:6px;"/><line x1="239.7" y1="313.25" x2="186" y2="384" style="fill:none; stroke:#c2df23; stroke-width:6px;"/><circle cx="190" cy="40" r="40" style="fill:#440357;"/><circle cx="48" cy="94" r="48" style="fill:#24848d;"/><circle cx="94" cy="268" r="38" style="fill:#23a982;"/><circle cx="186" cy="384" r="52" style="fill:#88d547;"/><path d="M357.38,326.46c32.69-14.48,57.73-43.68,67.09-78.18,9.66-35.63,2.17-74.65-20.2-104.05-11.85-15.58-27.5-28.21-45.27-36.43" style="fill:none; stroke:#28ae7f; stroke-linecap:round; stroke-linejoin:round; stroke-width:10px;"/><path d="M263.3,108.31c-32.69,14.48-57.73,43.68-67.09,78.18-9.66,35.63-2.17,74.65,20.2,104.05,11.85,15.58,27.5,28.21,45.27,36.43" style="fill:none; stroke:#28ae7f; stroke-linecap:round; stroke-linejoin:round; stroke-width:10px;"/><circle cx="310.34" cy="218" r="91.8" style="fill:#e9e419;"/><g style="isolation:isolate;"><text transform="translate(189.16 259) scale(.65 1)" style="fill:#440255; font-family:Helvetica, Helvetica; font-size:114px; isolation:isolate;"><tspan x="0" y="0">PySN</tspan><tspan x="291.4" y="0" style="letter-spacing:-.02em;">T</tspan></text></g></svg>